PathFileType	4	(X/Y/Z)	C:/Users/opensim2020/Desktop/walking_exp_matlab/subject03_walking06_straight_02.trc	
DataRate	CameraRate	NumFrames	NumMarkers	Units	OrigDataRate	OrigDataStartFrame	OrigNumFrames	
100.00	100.00	4	44	mm	100.00	1400	238	
Frame#	Time	LFHD			RFHD			LBHD			RBHD			C7			T10			CLAV			STRN			RBAK			LSHO			LUPA			LELB			LFRM			LWRA			LWRB			LFIN			RSHO			RUPA			RELB			RFRM			RWRA			RWRB			RFIN			LASI			RASI			LPSI			RPSI			LTHI			LKNE			LTIB			LANK			LHEE			LTOE			RTHI			RKNE			RTIB			RANK			RHEE			RTOE			*39			*40			*41			*42			*43			
		X1	Y1	Z1	X2	Y2	Z2	X3	Y3	Z3	X4	Y4	Z4	X5	Y5	Z5	X6	Y6	Z6	X7	Y7	Z7	X8	Y8	Z8	X9	Y9	Z9	X10	Y10	Z10	X11	Y11	Z11	X12	Y12	Z12	X13	Y13	Z13	X14	Y14	Z14	X15	Y15	Z15	X16	Y16	Z16	X17	Y17	Z17	X18	Y18	Z18	X19	Y19	Z19	X20	Y20	Z20	X21	Y21	Z21	X22	Y22	Z22	X23	Y23	Z23	X24	Y24	Z24	X25	Y25	Z25	X26	Y26	Z26	X27	Y27	Z27	X28	Y28	Z28	X29	Y29	Z29	X30	Y30	Z30	X31	Y31	Z31	X32	Y32	Z32	X33	Y33	Z33	X34	Y34	Z34	X35	Y35	Z35	X36	Y36	Z36	X37	Y37	Z37	X38	Y38	Z38	X39	Y39	Z39	X40	Y40	Z40	X41	Y41	Z41	X42	Y42	Z42	X43	Y43	Z43	X44	Y44	Z44	

120	1.190	-937.34247	-59.69145	1598.59961	-1069.80737	-46.05730	1599.78748	-927.39130	71.90122	1568.39453	-1057.96606	80.62967	1568.65515	-977.59540	119.82076	1404.90942	-980.63550	163.98105	1091.56836	-986.67651	1.49152	1323.88721	-980.14594	-38.36724	1159.42297	-1065.68164	186.58900	1228.92749	-830.09448	35.15028	1367.06299	-748.08459	-2.62272	1184.51392	-733.92493	-53.26712	1073.96460	-746.57397	-140.27023	980.00574	-789.90015	-215.69734	894.43481	-737.35974	-200.47104	883.74133	-754.05872	-261.93448	829.38623	-1142.56946	60.87532	1346.47766	-1216.22998	86.46154	1126.02747	-1232.15784	81.58031	1013.46552	-1237.23120	77.18333	876.81653	-1206.50732	52.75988	778.43085	-1247.65076	87.64798	776.87714	-1239.48059	70.86455	703.69781	-864.10223	-2.68288	930.31134	-1103.07104	-5.35756	925.54718	-918.43634	158.05193	950.41498	-1066.75623	155.90610	947.87512	-833.65039	78.45383	630.92059	-872.86432	101.55686	454.34625	-870.84033	184.38579	274.13696	-913.28955	240.29948	69.97623	-948.18695	286.41327	37.62396	-941.40698	92.71718	29.59898	-1157.66162	-21.10802	633.66211	-1123.24341	-112.28400	477.58405	-1131.93359	-124.92731	291.12177	-1094.91699	-167.71512	77.40795	-1039.82764	-135.54016	36.72028	-1083.25024	-311.51163	65.84443															 
121	1.200	-938.45056	-69.48765	1597.08484	-1070.85168	-55.67226	1598.13574	-928.32654	62.13700	1567.02332	-1058.87256	71.00490	1567.16211	-978.58521	110.20213	1403.40002	-981.64465	154.47731	1090.03064	-987.47998	-8.11758	1322.31409	-980.93964	-48.02812	1157.86060	-1066.30847	177.06010	1227.37830	-830.89996	25.62988	1365.54517	-748.76447	-11.64355	1182.97205	-734.38696	-62.30522	1072.52600	-747.50574	-150.66908	980.19598	-791.45477	-227.61423	896.39136	-739.02759	-212.40125	884.89496	-755.92896	-274.98984	832.00616	-1143.39075	51.49395	1344.97302	-1216.55884	78.00733	1124.51367	-1232.34045	73.70132	1011.91705	-1237.16089	69.70348	875.25464	-1206.24841	44.96513	776.99341	-1247.33899	80.34142	775.27356	-1239.02979	63.75717	702.06531	-864.82434	-11.70802	928.97717	-1103.77600	-15.04706	924.00647	-919.54266	148.78830	948.95160	-1067.84265	146.27136	946.26599	-833.91125	71.33485	629.98505	-873.00787	95.73009	453.37897	-870.96130	180.87135	274.07089	-913.23102	239.81360	70.64603	-948.20844	286.12140	38.69837	-941.39026	92.73376	29.61925	-1158.80139	-28.50891	631.33429	-1123.37122	-119.94118	475.32352	-1133.15161	-138.80914	290.45886	-1097.40686	-190.80518	77.81724	-1042.43738	-159.84702	36.36449	-1085.77490	-334.92035	71.24043															 
122	1.210	-939.56866	-79.38379	1595.63293	-1071.99561	-65.35234	1596.57800	-929.29944	52.29420	1565.63403	-1059.75806	61.35239	1565.63147	-979.62915	100.51524	1401.95898	-982.72095	144.74657	1088.46582	-988.30817	-17.86739	1320.84607	-981.75085	-57.74624	1156.34570	-1066.96021	167.27780	1225.74805	-831.73639	15.99563	1364.03809	-749.38654	-20.66422	1181.40967	-734.94629	-71.32347	1071.10388	-748.50500	-160.72972	980.13556	-793.03290	-238.92332	897.86346	-740.84076	-223.80661	885.66016	-757.85797	-287.45099	834.24860	-1144.32227	41.95852	1343.52112	-1216.82996	69.34393	1123.06799	-1232.58496	65.60767	1010.37250	-1237.17798	61.88602	873.64557	-1206.18115	37.04324	775.58539	-1247.00623	72.82085	773.69293	-1238.64417	56.36275	700.41010	-865.43347	-20.82660	927.46271	-1104.43921	-24.84782	922.51569	-920.72137	139.65199	947.53754	-1068.99927	136.51822	944.82153	-834.14746	64.10349	629.01111	-873.06976	89.65376	452.42902	-871.11444	177.33611	274.08774	-913.10254	239.26729	71.42154	-948.11890	285.83569	40.10451	-941.37756	92.61041	29.55917	-1159.19385	-36.09718	629.05219	-1123.83057	-127.73656	473.20410	-1134.33508	-151.81313	289.84708	-1099.62036	-211.58003	78.80727	-1044.62634	-182.28906	36.35828	-1088.31604	-356.32401	76.57980															 
123	1.220	-940.70245	-89.28020	1594.25354	-1073.10889	-75.14679	1595.09912	-930.23779	42.40845	1564.29639	-1060.71558	51.53870	1564.23218	-980.55115	90.72883	1400.44885	-983.81219	134.93871	1086.99170	-989.24115	-27.69285	1319.35095	-982.58813	-67.55382	1154.87683	-1067.61340	157.41521	1224.14624	-832.58893	6.32337	1362.55090	-750.15796	-29.66487	1179.74182	-735.63947	-80.19046	1069.55127	-749.60883	-170.48735	979.70410	-794.65826	-249.77647	898.95795	-742.60199	-234.66660	885.99945	-759.81104	-299.26740	836.05811	-1145.26404	32.36743	1342.00049	-1217.28882	60.60674	1121.58301	-1232.84387	57.35499	1008.80597	-1237.12256	53.94899	872.11334	-1206.04297	28.96077	774.05212	-1246.60205	65.10269	772.12494	-1238.15710	48.67046	698.82397	-866.11511	-30.09974	926.04443	-1105.00745	-34.81981	921.12457	-921.95966	130.20265	946.07526	-1070.31116	126.63105	943.46387	-834.63995	56.75554	628.07874	-873.12823	83.66832	451.68195	-871.22369	173.70021	274.29938	-912.94971	238.58275	72.43439	-947.92487	285.61484	41.81202	-941.41595	92.51064	29.49711	-1160.08521	-44.35641	627.23724	-1124.39172	-135.73819	471.26816	-1135.64075	-164.01682	289.33206	-1101.62744	-230.29907	79.90501	-1046.45190	-202.63664	36.57896	-1090.71204	-375.55435	81.27506															 
